# xmcd
#
# Track frame offsets:
#	150
#	8124
#	12855
#	18123
#	27351
#	32509
#	37270
#	43305
#	46927
#	53458
#	58236
#	64386
#	68091
#	73962
#	77734
#	84253
#	91439
#	95971
#	101889
#	109989
#	115243
#	121477
#	130488
#	135972
#	139510
#	144282
#	148308
#	152789
#	158539
#	163120
#	169570
#	176336
#	181991
#	187817
#	193648
#	198169
#	201739
#	207136
#	216562
#	222906
#	228096
#	239651
#
# Disc length: 3285 seconds
#
# Revision: 0
# Processed by: cddbd v1.5.2PL0 Copyright (c) Steve Scherf et al.
# Submitted via: EasyCDDAExtractor 11.5.0.1
#
DISCID=670cd32a
DTITLE=삼성출판사 - 영어 율동 동요
DYEAR=2012
DGENRE=
TTITLE0=The Hokey Pokey
TTITLE1=What's This?
TTITLE2=Animal Talk
TTITLE3=Five Little Monkeys
TTITLE4=I'm a Little Teapot
TTITLE5=Teddy Bear
TTITLE6=The Family
TTITLE7=Hello Song
TTITLE8=Baa, Baa, Black Sheep
TTITLE9=This Is the Way
TTITLE10=Little Cabin in a Wood
TTITLE11=One Little Finger
TTITLE12=There's a Hole in the Middle of the Sea
TTITLE13=Do Your Ears Hang Low?
TTITLE14=Little Peter Rabbit
TTITLE15=Old MacDonald Had a Farm
TTITLE16=Eeentsy Weentsy Spider
TTITLE17=Polly, Put the Kettle on
TTITLE18=Pooly Wooly Doodle
TTITLE19=Walking, walking
TTITLE20=The Horse Went Around
TTITLE21=If You're Happy
TTITLE22=One Elephant Went out to Play
TTITLE23=Baby Bye
TTITLE24=The Muffin Man
TTITLE25=Baby Bumblebee
TTITLE26=Doremi Song
TTITLE27=Down by the Bay
TTITLE28=Playmate
TTITLE29=Did You Ever See a Lassie?
TTITLE30=Rock-a-Bye Baby
TTITLE31=Skip to My Lou
TTITLE32=The Shapes Song
TTITLE33=My aunt Came Back
TTITLE34=John Jacob Jingleheimer Schmidt
TTITLE35=How Are Your My Friend?
TTITLE36=Yankee Doodle
TTITLE37=Happy Happy Home
TTITLE38=Pat-a-Cake
TTITLE39=Mary Had a Little Lamb
TTITLE40=The Orchestra
TTITLE41=The Hokey Pokey(Reprise)
EXTD=
EXTT0=
EXTT1=
EXTT2=
EXTT3=
EXTT4=
EXTT5=
EXTT6=
EXTT7=
EXTT8=
EXTT9=
EXTT10=
EXTT11=
EXTT12=
EXTT13=
EXTT14=
EXTT15=
EXTT16=
EXTT17=
EXTT18=
EXTT19=
EXTT20=
EXTT21=
EXTT22=
EXTT23=
EXTT24=
EXTT25=
EXTT26=
EXTT27=
EXTT28=
EXTT29=
EXTT30=
EXTT31=
EXTT32=
EXTT33=
EXTT34=
EXTT35=
EXTT36=
EXTT37=
EXTT38=
EXTT39=
EXTT40=
EXTT41=
PLAYORDER=
